<svg width="1600" height="900" viewBox="0 0 1600 900" fill="none" xmlns="http://www.w3.org/2000/svg">
  <defs>
    <linearGradient id="line-fade" x1="74" y1="450" x2="1526" y2="450" gradientUnits="userSpaceOnUse">
      <stop stop-color="#060708" stop-opacity="0"/>
      <stop offset="0.18" stop-color="#1A1D22" stop-opacity="0.84"/>
      <stop offset="0.5" stop-color="#101317" stop-opacity="1"/>
      <stop offset="0.82" stop-color="#1A1D22" stop-opacity="0.84"/>
      <stop offset="1" stop-color="#060708" stop-opacity="0"/>
    </linearGradient>
    <linearGradient id="wave-fade" x1="0" y1="0" x2="1600" y2="0" gradientUnits="userSpaceOnUse">
      <stop stop-color="#050607" stop-opacity="0"/>
      <stop offset="0.2" stop-color="#171A1F" stop-opacity="0.6"/>
      <stop offset="0.5" stop-color="#0D1014" stop-opacity="0.98"/>
      <stop offset="0.8" stop-color="#171A1F" stop-opacity="0.6"/>
      <stop offset="1" stop-color="#050607" stop-opacity="0"/>
    </linearGradient>
    <radialGradient id="node-glow" cx="0" cy="0" r="1" gradientUnits="userSpaceOnUse" gradientTransform="translate(801 439) rotate(90) scale(345 560)">
      <stop stop-color="#0A0C10" stop-opacity="0.34"/>
      <stop offset="1" stop-color="#0A0C10" stop-opacity="0"/>
    </radialGradient>
    <filter id="soft-blur" x="-20%" y="-20%" width="140%" height="140%" color-interpolation-filters="sRGB">
      <feGaussianBlur stdDeviation="16"/>
    </filter>
  </defs>

  <g opacity="0.96">
    <ellipse cx="788" cy="437" rx="338" ry="338" stroke="url(#line-fade)" stroke-width="1.3"/>
    <ellipse cx="788" cy="437" rx="288" ry="288" stroke="url(#line-fade)" stroke-width="1.1"/>
    <ellipse cx="788" cy="437" rx="386" ry="386" stroke="url(#line-fade)" stroke-width="1" stroke-dasharray="3 8"/>
    <ellipse cx="362" cy="624" rx="196" ry="102" stroke="url(#line-fade)" stroke-width="1"/>
    <ellipse cx="1320" cy="432" rx="218" ry="148" stroke="url(#line-fade)" stroke-width="1.1"/>
  </g>

  <g opacity="0.58" filter="url(#soft-blur)">
    <ellipse cx="788" cy="437" rx="338" ry="338" fill="url(#node-glow)"/>
  </g>

  <g opacity="0.72" stroke="url(#line-fade)" stroke-width="1.05" stroke-linecap="round">
    <path d="M214 530L470 300L663 380L913 415L1190 442L1302 327L1481 420"/>
    <path d="M470 300L510 465L564 382"/>
    <path d="M913 415L863 565L890 646"/>
    <path d="M913 415L956 516L944 602"/>
    <path d="M1190 442L1163 521L1180 612"/>
    <path d="M1302 327L1291 393L1304 470"/>
    <path d="M470 465L290 648"/>
    <path d="M564 382L738 492"/>
    <path d="M1481 420L1600 372"/>
    <path d="M1180 612L1468 470"/>
    <path d="M1291 393L1406 566"/>
    <path d="M863 565L715 744"/>
  </g>

  <g opacity="0.62" stroke="url(#wave-fade)" stroke-width="0.95" stroke-linecap="round">
    <path d="M-80 400C130 290 248 550 443 471C602 406 711 583 893 502C1085 416 1198 287 1356 374C1498 452 1570 474 1692 430"/>
    <path d="M-80 418C130 308 248 568 443 489C602 424 711 601 893 520C1085 434 1198 305 1356 392C1498 470 1570 492 1692 448"/>
    <path d="M-80 436C130 326 248 586 443 507C602 442 711 619 893 538C1085 452 1198 323 1356 410C1498 488 1570 510 1692 466"/>
    <path d="M-80 454C130 344 248 604 443 525C602 460 711 637 893 556C1085 470 1198 341 1356 428C1498 506 1570 528 1692 484"/>
    <path d="M-80 472C130 362 248 622 443 543C602 478 711 655 893 574C1085 488 1198 359 1356 446C1498 524 1570 546 1692 502"/>
    <path d="M-80 490C130 380 248 640 443 561C602 496 711 673 893 592C1085 506 1198 377 1356 464C1498 542 1570 564 1692 520"/>
    <path d="M-90 612C168 505 254 716 446 688C614 663 706 776 892 716C1077 655 1226 510 1360 542C1499 575 1601 628 1716 592"/>
    <path d="M1034 210C1116 154 1234 120 1324 172C1414 224 1476 250 1562 214"/>
    <path d="M1034 226C1116 170 1234 136 1324 188C1414 240 1476 266 1562 230"/>
    <path d="M1034 242C1116 186 1234 152 1324 204C1414 256 1476 282 1562 246"/>
    <path d="M1034 258C1116 202 1234 168 1324 220C1414 272 1476 298 1562 262"/>
    <path d="M1034 274C1116 218 1234 184 1324 236C1414 288 1476 314 1562 278"/>
    <path d="M-46 430C58 486 180 366 236 266C284 182 344 171 428 260C511 348 548 569 694 608"/>
  </g>

  <g opacity="0.54" stroke="url(#line-fade)" stroke-width="0.95" stroke-dasharray="2.5 9" stroke-linecap="round">
    <path d="M262 652C344 683 456 686 548 656"/>
    <path d="M1038 583C1122 608 1229 604 1330 566"/>
    <path d="M724 680C785 704 879 709 955 674"/>
    <path d="M1328 443C1382 414 1450 398 1512 418"/>
  </g>

  <g opacity="0.96">
    <circle cx="470" cy="465" r="5.5" fill="#0D1013"/>
    <circle cx="564" cy="382" r="5.5" fill="#1A1E24"/>
    <circle cx="663" cy="380" r="4.5" fill="#242A31"/>
    <circle cx="913" cy="415" r="7.2" fill="#F8F9FA" stroke="#13171C" stroke-width="2"/>
    <circle cx="1302" cy="327" r="6" fill="#171B21"/>
    <circle cx="1481" cy="420" r="7.2" fill="#FAFBFB" stroke="#101419" stroke-width="2"/>
    <circle cx="1190" cy="442" r="2.8" fill="#1D2228"/>
    <circle cx="863" cy="565" r="5.4" fill="#11151A"/>
    <circle cx="890" cy="646" r="2.7" fill="#1F242A"/>
    <circle cx="944" cy="602" r="3.2" fill="#171B20"/>
    <circle cx="1180" cy="612" r="6" fill="#0F1318"/>
    <circle cx="1291" cy="393" r="3.1" fill="#1B1F25"/>
    <circle cx="1406" cy="566" r="4.2" fill="#252B31"/>
    <circle cx="1468" cy="470" r="4.6" fill="#191E24"/>
    <circle cx="290" cy="648" r="7.4" fill="#FBFBFC" stroke="#12161A" stroke-width="2"/>
    <circle cx="715" cy="744" r="4.8" fill="#12161B"/>
    <circle cx="1000" cy="165" r="2.6" fill="#1A1F25"/>
    <circle cx="1170" cy="116" r="5.1" fill="#14181D"/>
    <circle cx="1574" cy="426" r="3.8" fill="#252B31"/>
  </g>

  <g opacity="0.76" stroke="#1B2026" stroke-width="1.1" stroke-dasharray="5 5">
    <circle cx="290" cy="648" r="16.5"/>
    <circle cx="913" cy="415" r="14.5"/>
    <circle cx="1481" cy="420" r="15.5"/>
    <circle cx="320" cy="472" r="19.5"/>
  </g>

  <g opacity="0.56" fill="#1F242A">
    <circle cx="231" cy="395" r="1.8"/>
    <circle cx="651" cy="450" r="4.2"/>
    <circle cx="768" cy="487" r="4.3"/>
    <circle cx="1065" cy="394" r="2.4"/>
    <circle cx="1400" cy="522" r="2.3"/>
    <circle cx="1260" cy="540" r="1.9"/>
    <circle cx="1240" cy="618" r="2.2"/>
    <circle cx="1312" cy="618" r="2.2"/>
    <circle cx="1366" cy="618" r="2.2"/>
    <circle cx="1180" cy="254" r="1.8"/>
    <circle cx="820" cy="285" r="1.6"/>
    <circle cx="430" cy="548" r="1.8"/>
    <circle cx="350" cy="676" r="1.9"/>
    <circle cx="454" cy="720" r="1.8"/>
    <circle cx="473" cy="685" r="1.8"/>
    <circle cx="287" cy="720" r="1.9"/>
  </g>
</svg>
